<svg xmlns="http://www.w3.org/2000/svg" version="1.1" xmlns:xlink="http://www.w3.org/1999/xlink" xmlns:svgjs="http://svgjs.dev/svgjs" width="1000" height="1000"><g clip-path="url(#SvgjsClipPath1015)"><rect width="1000" height="1000" fill="#ffffff"></rect><g transform="matrix(5.49278091650973,0,0,5.49278091650973,165.43471437539233,150)"><svg xmlns="http://www.w3.org/2000/svg" version="1.1" xmlns:xlink="http://www.w3.org/1999/xlink" xmlns:svgjs="http://svgjs.dev/svgjs" width="121.82" height="127.44"><svg id="Layer_1" data-name="Layer 1" xmlns="http://www.w3.org/2000/svg" viewBox="0 0 121.82 127.44"><path d="M40.85,127.44c-12.58-7.27-25.14-14.58-37.78-21.76C.92,104.45,0,103.1,0,100.53Q.2,80,0,59.54a5.2,5.2,0,0,1,3-5.23C14.2,47.87,25.31,41.23,36.54,34.77c1.75-1,2.85-2.07,2.41-4.15-1.14-5.39,1.54-8.15,6.1-10.65C56,14,66.59,7.49,77.26,1.06a5.63,5.63,0,0,1,6.57,0Q101.31,11.43,119,21.47a4.94,4.94,0,0,1,2.83,5c-.11,13.66-.13,27.33,0,41,0,2.7-.94,4.09-3.18,5.39-11,6.39-21.94,13-33,19.39a4.24,4.24,0,0,0-2.5,4.17c0,9.12,1.49,6.54-6.46,11.15C66,113.71,55.24,119.72,44.5,125.82c-.85.48-1.63,1.08-2.45,1.62Zm3.5-7.6c1.25-.64,2.13-1,3-1.51,9.31-5.37,18.58-10.82,28-16.09a4.58,4.58,0,0,0,2.65-4.69q-.12-43.51,0-87V7.2c-1.28.68-2.14,1.1-3,1.58-9.32,5.37-18.58,10.82-28,16.06-2.07,1.16-2.63,2.45-2.62,4.7q.11,43.5.05,87ZM5.65,62.08c-.09.82-.19,1.28-.19,1.74,0,11.66-.06,23.33.08,35a4.41,4.41,0,0,0,2.05,3.06C17.1,107.5,26.69,113,36.27,118.5c.74.42,1.53.75,2.3,1.12.19-.38.34-.54.34-.7,0-12,.07-23.93,0-35.89a3.93,3.93,0,0,0-1.8-2.64c-4.14-2.56-8.4-5-12.62-7.4Zm77.6-55c0,12.43.06,24.18-.06,35.92a4.15,4.15,0,0,0,2.48,4.16C95,52.48,104.26,57.91,113.55,63.3c.83.48,1.69.89,2.62,1.37a5.29,5.29,0,0,0,.33-1.1c0-11.85.08-23.7,0-35.55a4,4,0,0,0-1.83-2.65c-4.93-3-10-5.84-14.94-8.73ZM38.72,75V39.73L8.28,57.3Zm75-5.17L83.41,52.23V87.34Z"></path></svg></svg></g></g><defs><clipPath id="SvgjsClipPath1015"><rect width="1000" height="1000" x="0" y="0" rx="350" ry="350"></rect></clipPath></defs></svg>